<svg width="22" height="22" viewBox="0 0 22 22" fill="none" xmlns="http://www.w3.org/2000/svg">
<path d="M20.426 21.7178L12.575 13.8669C11.95 14.3829 11.2312 14.7867 10.4187 15.0784C9.60624 15.3701 8.7657 15.5159 7.89712 15.5159C5.76066 15.5159 3.95251 14.7762 2.47268 13.2967C0.992846 11.8173 0.25293 10.0096 0.25293 7.87369C0.25293 5.73778 0.992659 3.92943 2.47212 2.44866C3.95157 0.967914 5.75926 0.227539 7.89518 0.227539C10.0311 0.227539 11.8394 0.967457 13.3202 2.44729C14.8009 3.92712 15.5413 5.73527 15.5413 7.87173C15.5413 8.76435 15.3915 9.61691 15.0918 10.4294C14.7921 11.2419 14.3923 11.9486 13.8923 12.5496L21.7432 20.4006L20.426 21.7178ZM7.89712 13.641C9.5077 13.641 10.8719 13.0821 11.9897 11.9643C13.1075 10.8465 13.6664 9.48231 13.6664 7.87173C13.6664 6.26114 13.1075 4.89696 11.9897 3.77916C10.8719 2.66137 9.5077 2.10248 7.89712 2.10248C6.28653 2.10248 4.92235 2.66137 3.80455 3.77916C2.68678 4.89696 2.1279 6.26114 2.1279 7.87173C2.1279 9.48231 2.68678 10.8465 3.80455 11.9643C4.92235 13.0821 6.28653 13.641 7.89712 13.641Z" fill="white"/>
</svg>
